<svg width="264" height="264" viewBox="0 0 264 264" fill="none" xmlns="http://www.w3.org/2000/svg">
<rect width="264" height="264" fill="#EEEEEE"/>
<path d="M196.314 88.026C197.514 83.626 198.414 79.2259 199.314 74.7259C201.114 65.0259 203.714 54.2259 203.214 44.3259C202.814 36.6259 193.214 32.726 187.914 36.126C184.814 36.126 181.614 37.2259 179.014 39.9259C171.514 47.3259 162.514 53.126 154.514 60.026C154.214 59.926 153.914 59.8259 153.614 59.7259C149.614 54.8259 142.414 52.7259 137.414 58.9259C132.114 65.4259 129.714 72.3259 128.014 80.1259C125.914 83.3259 124.014 86.7259 122.414 90.3259C122.214 89.3259 121.914 88.3259 121.714 87.3259C118.814 75.9259 104.714 78.0259 101.314 86.7259C101.114 86.8259 100.914 86.9259 100.714 87.1259C90.2141 94.5259 88.1141 107.526 85.9141 119.426C85.7141 120.426 85.5141 121.426 85.3141 122.526C85.2141 122.626 85.1141 122.726 85.0141 122.726C84.4141 121.726 83.6141 120.726 82.8141 119.826C82.2141 119.226 81.6141 118.626 81.0141 118.226C75.2141 114.026 66.7141 113.926 62.5141 122.126C59.1141 128.826 55.5141 135.326 54.5141 142.826C53.3141 152.126 56.2141 163.026 58.2141 172.026C60.1141 180.626 65.1141 191.926 70.6141 198.726C73.3141 202.126 76.4141 205.826 79.4141 208.826C83.4141 212.826 89.2141 214.426 93.9141 217.526C96.4141 219.126 98.7141 219.326 100.714 218.626C101.614 219.026 102.514 219.426 103.614 219.626C111.614 220.926 119.714 221.826 127.414 221.126C128.014 221.626 128.614 222.126 129.314 222.426C133.814 224.826 138.314 226.626 143.414 226.726C149.814 226.926 156.214 222.226 161.014 218.526C164.614 215.726 165.614 210.526 164.714 206.026C169.914 204.026 175.014 201.726 180.114 199.526C188.814 195.626 188.314 185.526 183.314 179.326C189.014 172.226 193.814 164.526 198.014 156.426C200.014 152.426 200.114 148.626 199.014 145.326C201.214 137.226 194.014 129.126 185.614 128.426C193.214 118.826 198.314 107.426 200.414 95.3259C200.914 92.3259 198.914 89.426 196.314 88.026Z" fill="#BED96A"/>
<path d="M202.214 157.226C208.214 149.226 213.414 139.126 212.714 128.826C212.514 126.726 211.214 125.526 209.214 125.326C205.714 124.926 202.414 125.126 199.014 125.226C205.414 114.226 210.414 103.926 210.114 90.526C209.914 80.826 203.814 82.626 196.914 82.726C208.414 63.126 205.214 37.1259 203.114 15.9259C203.014 14.8259 202.114 14.226 201.214 14.226C200.214 13.726 198.814 14.0259 198.414 15.4259C198.214 16.1259 198.014 16.826 197.814 17.526C197.614 17.626 197.314 17.726 197.114 18.026C185.714 29.426 172.914 38.926 159.914 48.526C158.214 44.526 157.414 40.026 154.314 36.726C153.314 35.626 151.214 35.326 150.014 36.126C143.714 40.626 138.214 46.826 133.014 52.626C127.714 58.526 125.514 67.4259 121.114 73.9259C119.914 70.2259 119.714 66.4259 117.714 62.9259C116.614 60.9259 113.914 60.726 112.314 62.226C105.714 68.526 93.6141 75.9259 90.5141 84.8259C86.8141 95.2259 86.3142 106.226 83.8142 116.826C81.7142 111.226 79.6142 105.726 77.8142 100.026C77.0142 97.626 73.4142 96.8259 72.1142 99.3259C65.7142 111.626 57.5142 121.426 54.1142 135.126C51.0142 148.026 51.7141 160.826 53.7141 173.726C56.6141 192.126 69.6141 221.426 91.0141 223.926C90.8141 235.126 91.9141 246.326 94.5141 257.426C95.1141 260.126 99.5141 259.526 99.4141 256.726C98.8141 246.226 98.4141 236.026 98.5141 225.926C112.614 233.626 139.314 227.826 152.614 221.926C168.714 214.826 197.514 197.726 198.114 177.526C198.114 176.126 197.014 174.426 195.614 174.226C192.714 173.826 189.714 173.726 186.814 173.326C188.414 171.726 190.514 170.426 192.114 168.926C196.014 165.626 199.414 161.026 202.214 157.226ZM197.814 89.9259C203.214 90.4259 203.114 89.126 203.214 94.726C203.314 106.626 195.714 117.126 189.814 126.926C188.314 129.326 190.314 132.026 192.814 132.226C195.814 132.526 198.814 132.326 201.714 132.226C193.114 141.326 175.714 148.326 165.114 152.026C151.114 156.926 129.614 160.726 114.914 156.126C121.014 144.726 128.314 134.026 136.114 123.526C137.314 121.926 138.614 120.326 139.814 118.726C140.114 118.926 140.514 119.026 140.914 119.026C161.214 121.726 183.114 106.826 193.014 89.226C194.514 89.526 195.814 89.7259 197.814 89.9259ZM199.614 28.026C200.014 46.926 201.114 68.026 188.914 83.126C187.914 84.326 187.814 85.926 188.514 87.126C178.014 102.126 162.114 110.126 144.314 113.126C155.914 99.526 168.914 87.2259 179.714 72.9259C190.114 59.3259 195.414 44.126 199.614 28.026ZM152.014 46.226C153.214 49.426 153.914 52.926 155.914 55.526C156.914 56.926 159.114 58.0259 160.814 56.8259C171.914 48.5259 183.914 41.0259 194.014 31.4259C188.214 49.2259 180.314 64.926 167.214 80.026C160.114 88.226 152.714 96.126 145.414 104.126C140.314 87.526 143.714 61.326 152.014 46.226ZM113.914 71.626C114.714 75.026 115.114 78.4259 117.714 81.9259C119.114 83.7259 121.414 84.226 123.114 82.626C128.614 77.626 130.214 69.7259 133.914 63.3259C136.714 58.5259 141.214 53.3259 146.014 48.8259C137.414 65.8259 134.714 93.3259 141.214 108.826C134.814 115.926 128.614 123.226 123.014 131.226C120.114 135.326 117.314 139.626 114.814 144.026C113.914 141.826 112.614 139.826 111.214 137.426C106.514 129.826 106.214 119.826 106.114 111.126C105.714 97.426 109.414 84.326 113.914 71.626ZM91.6142 219.726C70.8142 213.426 62.0141 186.426 59.2141 167.326C57.5141 155.426 58.7141 143.926 61.5141 132.326C63.1141 125.626 66.7141 119.926 70.4141 114.226C66.5141 131.826 66.2141 149.826 70.9141 167.526C73.7141 178.226 82.6142 192.726 95.1142 193.926C93.1142 202.426 91.9142 211.026 91.6142 219.726ZM90.7141 186.126C81.9141 178.926 77.9141 172.326 75.0141 161.626C70.6141 145.226 71.7141 127.326 75.2141 110.726C77.2141 116.326 79.2142 121.926 81.1142 127.626C81.9142 129.926 85.8141 131.126 87.0141 128.426C91.4141 118.126 91.2141 107.226 94.0141 96.626C96.3141 87.926 101.814 81.7259 107.914 75.9259C98.7141 98.6259 93.6141 131.426 111.714 149.326C104.814 162.026 99.5141 175.626 96.0141 189.626C94.4141 188.226 92.5141 187.626 90.7141 186.126ZM99.9141 219.226C99.6141 219.126 99.3142 219.126 99.1142 219.026C99.3142 214.026 99.7142 209.126 100.314 204.126C114.214 210.126 134.914 209.526 148.514 206.426C159.014 204.026 172.714 200.426 182.614 193.426C175.614 201.326 165.714 207.526 156.514 212.326C141.614 220.126 116.714 226.226 99.9141 219.226ZM178.614 174.426C178.114 176.426 179.214 177.926 181.014 178.726C184.514 180.126 184.614 180.126 188.214 180.426C179.514 193.126 157.014 199.026 142.814 200.426C128.814 201.826 114.714 201.026 101.114 198.026C101.714 193.926 102.514 189.826 103.514 185.626C105.514 177.026 108.614 169.026 112.314 161.326C115.914 164.826 122.914 164.126 127.614 164.426C139.114 165.226 152.514 161.726 163.714 159.326C174.714 157.026 185.114 150.226 194.614 144.526C197.614 142.726 202.114 139.626 205.014 136.326C202.714 146.926 194.414 155.626 187.614 163.726C184.314 167.826 179.914 169.026 178.614 174.426Z" fill="#385765"/>
</svg>
