<svg width="117" height="177" viewBox="0 0 117 177" fill="none" xmlns="http://www.w3.org/2000/svg">
<path d="M108.444 103.235C112.736 97.5242 116.455 90.3148 115.955 82.9626C115.812 81.4637 114.882 80.6071 113.451 80.4644C110.948 80.1788 108.587 80.3216 106.155 80.393C110.733 72.5412 114.31 65.1891 114.095 55.6242C113.952 48.7003 109.589 49.9851 104.653 50.0565C112.879 36.0661 110.59 17.5072 109.088 2.37471C109.017 1.58953 108.373 1.16128 107.729 1.16128C107.014 0.804384 106.012 1.01849 105.726 2.01781C105.583 2.51747 105.44 3.0172 105.297 3.51686C105.154 3.58824 104.939 3.65962 104.796 3.87376C96.6423 12.0111 87.4868 18.7922 78.1882 25.6446C76.9722 22.7894 76.4 19.5773 74.1827 17.2218C73.4674 16.4366 71.9653 16.2225 71.107 16.7935C66.6007 20.0056 62.6667 24.4312 58.9473 28.5712C55.1564 32.7826 53.5828 39.1354 50.4356 43.7751C49.5772 41.134 49.4342 38.4216 48.0036 35.9233C47.2168 34.4957 45.2856 34.3529 44.1412 35.4236C39.4204 39.9206 30.7655 45.2027 28.5482 51.5555C25.9016 58.979 25.544 66.8308 23.7559 74.3971C22.2538 70.3998 20.7517 66.4739 19.4642 62.4053C18.892 60.6922 16.317 60.1211 15.3871 61.9056C10.8094 70.6853 4.94413 77.6806 2.5122 87.4596C0.294853 96.6676 0.795527 105.804 2.22608 115.012C4.30037 128.146 13.5989 149.06 28.9058 150.845C28.7627 158.839 29.5495 166.834 31.4093 174.757C31.8384 176.684 34.9856 176.256 34.9141 174.258C34.4849 166.763 34.1988 159.482 34.2704 152.273C44.3557 157.769 63.4536 153.629 72.9667 149.417C84.4826 144.349 105.083 132.143 105.512 117.725C105.512 116.725 104.725 115.512 103.723 115.369C101.649 115.084 99.5034 115.012 97.4291 114.727C98.5735 113.585 100.076 112.657 101.22 111.586C104.01 109.23 106.442 105.947 108.444 103.235ZM105.297 55.1958C109.16 55.5527 109.088 54.6248 109.16 58.6221C109.231 67.1163 103.795 74.6112 99.5749 81.6064C98.502 83.3195 99.9325 85.2468 101.721 85.3896C103.867 85.6037 106.012 85.461 108.087 85.3896C101.935 91.8852 89.4895 96.8818 81.9076 99.5228C71.8938 103.02 56.5154 105.733 46.0009 102.449C50.364 94.3121 55.5855 86.6745 61.1647 79.1796C62.023 78.0375 62.9529 76.8954 63.8112 75.7533C64.0258 75.8961 64.3119 75.9675 64.598 75.9675C79.1181 77.8947 94.7825 67.2591 101.864 54.6962C102.937 54.9104 103.867 55.0531 105.297 55.1958ZM106.585 11.0117C106.871 24.5025 107.657 39.5637 98.9311 50.3421C98.2159 51.1986 98.1443 52.3407 98.645 53.1973C91.1346 63.9042 79.7618 69.6146 67.0299 71.756C75.3271 62.0484 84.6257 53.2686 92.3506 43.0613C99.7895 33.3536 103.58 22.5039 106.585 11.0117ZM72.5375 24.0029C73.3958 26.287 73.8966 28.7853 75.3271 30.6412C76.0424 31.6405 77.616 32.4257 78.832 31.5691C86.7715 25.6446 95.3548 20.2911 102.579 13.4386C98.4304 26.1442 92.7798 37.3509 83.4097 48.1293C78.3312 53.9825 73.0382 59.6215 67.8167 65.3318C64.1688 53.4828 66.6007 34.7812 72.5375 24.0029ZM45.2856 42.1334C45.8578 44.5603 46.1439 46.9872 48.0036 49.4854C49.005 50.7703 50.6502 51.1272 51.8661 49.9852C55.8001 46.4162 56.9446 40.7771 59.5911 36.2088C61.5938 32.7826 64.8126 29.0708 68.2459 25.8587C62.0945 37.9933 60.1633 57.6228 64.8126 68.6867C60.2348 73.7546 55.8001 78.9654 51.7946 84.6758C49.7203 87.6024 47.7175 90.6717 45.9294 93.8124C45.2856 92.2421 44.3557 90.8144 43.3543 89.1013C39.9926 83.6764 39.778 76.5385 39.7065 70.3284C39.4204 60.5494 42.0669 51.1986 45.2856 42.1334ZM29.335 147.847C14.4573 143.35 8.16285 124.077 6.16008 110.444C4.94412 101.95 5.80244 93.741 7.80521 85.4609C8.94964 80.6785 11.5246 76.6099 14.1712 72.5412C11.3816 85.1041 11.167 97.9525 14.5288 110.587C16.5316 118.224 22.8975 128.574 31.8384 129.431C30.4079 135.498 29.5496 141.637 29.335 147.847ZM28.6912 123.863C22.3968 118.724 19.5357 114.013 17.4614 106.375C14.3142 94.669 15.101 81.892 17.6045 70.0429C19.035 74.0402 20.4656 78.0375 21.8246 82.1061C22.3968 83.7479 25.1864 84.6044 26.0447 82.6771C29.1919 75.325 29.0488 67.5446 31.0516 59.9783C32.6967 53.7683 36.6308 49.3427 40.9939 45.2027C34.4134 61.4059 30.7655 84.8185 43.712 97.5955C38.7766 106.661 34.9856 116.368 32.4822 126.362C31.3377 125.362 29.9787 124.934 28.6912 123.863ZM35.2718 147.49C35.0572 147.419 34.8426 147.419 34.6995 147.347C34.8426 143.778 35.1287 140.281 35.5579 136.712C45.5002 140.995 60.3063 140.566 70.0341 138.353C77.5444 136.64 87.3437 134.071 94.4249 129.074C89.418 134.713 82.3368 139.139 75.7562 142.565C65.0987 148.133 47.2884 152.487 35.2718 147.49ZM91.5638 115.512C91.2062 116.939 91.993 118.01 93.2805 118.581C95.7839 119.581 95.8555 119.581 98.4304 119.795C92.2076 128.86 76.1139 133.071 65.957 134.071C55.9432 135.07 45.8578 134.499 36.1301 132.358C36.5593 129.431 37.1314 126.504 37.8467 123.506C39.2773 117.368 41.4947 111.657 44.1412 106.161C46.7162 108.659 51.7231 108.16 55.0849 108.374C63.3105 108.945 72.8952 106.447 80.9062 104.734C88.7743 103.092 96.2131 98.238 103.008 94.1693C105.154 92.8845 108.373 90.6717 110.447 88.3161C108.802 95.8824 102.865 102.092 98.0013 107.874C95.6409 110.801 92.4937 111.657 91.5638 115.512Z" fill="#0D9488" stroke="#9CA3AF" stroke-width="0.5"/>
</svg>